Coordinates
version=1
nRows=14
nColumns=24
inDegrees=yes

Units are S.I. units (second, meters, Newtons, ...)
Angles are in degrees.

endheader
time	pelvis_tilt	pelvis_list	pelvis_rotation	pelvis_tx	pelvis_ty	pelvis_tz	hip_flexion_r	hip_adduction_r	hip_rotation_r	knee_angle_r	ankle_angle_r	subtalar_angle_r	mtp_angle_r	hip_flexion_l	hip_adduction_l	hip_rotation_l	knee_angle_l	ankle_angle_l	subtalar_angle_l	mtp_angle_l	lumbar_extension	lumbar_bending	lumbar_rotation
      1.02516667	      3.51332474	     -1.22043571	     -4.34145391	     -0.11226967	      0.89017044	      0.32720861	    -22.45767429	      5.13769481	     -1.70047334	     -7.28417256	     21.03169707	     13.91264918	      9.19530868	     22.53385556	     -1.40070590	    -11.23798771	     -3.29245952	      5.36035888	     -3.21078094	      4.46760933	    -11.95613267	     -0.11656279	     11.05197136
      1.02933333	      3.51208356	     -1.13820672	     -4.52818693	     -0.10648317	      0.88923819	      0.32737457	    -22.56923158	      4.94090091	     -1.53034724	     -7.85783534	     21.13690971	     13.86648600	      9.22218332	     22.58681943	     -1.34315216	    -11.07759549	     -3.76833977	      5.22233433	     -3.24802074	      4.47930507	    -11.94796489	     -0.32103438	     11.12683279
      1.03350000	      3.50321739	     -1.03093135	     -4.71777209	     -0.10062958	      0.88836412	      0.32751887	    -22.64141287	      4.71049115	     -1.40938469	     -8.49408553	     21.20144807	     13.87308689	      9.26666575	     22.63397769	     -1.25782676	    -10.92013913	     -4.28856071	      5.03239987	     -3.29404991	      4.49990197	    -11.91203406	     -0.55224063	     11.20965850
      1.03766667	      3.46661008	     -0.90748389	     -4.90187243	     -0.09473269	      0.88750603	      0.32761569	    -22.64326851	      4.45432774	     -1.38189018	     -9.21118389	     21.28425658	     14.10381273	      9.45041072	     22.71027451	     -1.15070442	    -10.72791864	     -4.86380819	      4.78136988	     -3.41299055	      4.59240630	    -11.85097291	     -0.79006484	     11.38701161
      1.04183333	      3.48803487	     -0.75771141	     -5.08825214	     -0.08875582	      0.88680749	      0.32775010	    -22.72791532	      4.17514216	     -1.26097585	     -9.88705429	     21.27521838	     14.09117582	      9.57517377	     22.70848877	     -1.01578043	    -10.58667247	     -5.46897259	      4.50350172	     -3.52832216	      4.65101341	    -11.83864354	     -1.08987536	     11.40241052
      1.04600000	      3.49732160	     -0.60314550	     -5.26148809	     -0.08273536	      0.88614979	      0.32782677	    -22.77035110	      3.88787407	     -1.20469210	    -10.62055127	     21.21944161	     14.14726695	      9.76389552	     22.72651739	     -0.86715337	    -10.43071667	     -6.12654630	      4.16282906	     -3.74242671	      4.73491670	    -11.79107888	     -1.38108349	     11.45311432
      1.05016667	      3.56276482	     -0.45519441	     -5.39995762	     -0.07666082	      0.88562545	      0.32785860	    -22.88637249	      3.61653767	     -1.16735632	    -11.32526149	     21.03830264	     14.11848944	      9.88148118	     22.70681643	     -0.71457655	    -10.31261665	     -6.87047670	      3.84026507	     -3.94032817	      4.78245909	    -11.80119058	     -1.64941958	     11.46405147
      1.05433333	      3.56438043	     -0.28275226	     -5.53219091	     -0.07056483	      0.88507077	      0.32781941	    -22.87018797	      3.31186772	     -1.21076860	    -12.15622269	     20.95279784	     14.35234308	     10.47158282	     22.71691477	     -0.50995408	     -9.99850133	     -7.54301818	      3.33495500	     -4.52431512	      5.01388327	    -11.76084952	     -1.94012997	     11.52741445
      1.05850000	      3.70361566	     -0.06495162	     -5.66060600	     -0.06431554	      0.88481198	      0.32779372	    -23.05235345	      2.95324765	     -1.22821680	    -12.86629530	     20.50944571	     14.29095226	     14.78486991	     22.54536605	     -0.24903988	     -9.82978667	     -8.17507125	      2.77942649	     -4.95072271	      6.61831302	    -11.85329184	     -2.32028407	     11.47254226
      1.06266667	      3.67977593	      0.09879359	     -5.79534969	     -0.05812372	      0.88435513	      0.32779695	    -22.99474025	      2.67477530	     -1.12651469	    -13.71888230	     20.23416942	     14.19236012	     14.86031948	     22.65359435	     -0.09178764	     -9.78191926	     -9.06086586	      2.43554079	     -5.19530208	      6.63651831	    -11.73227683	     -2.62420024	     11.44878254
      1.06683333	      3.70780025	      0.28804462	     -5.90413103	     -0.05185260	      0.88404719	      0.32772938	    -22.98130841	      2.36484870	     -1.11052939	    -14.58836450	     19.85112006	     14.15948757	     14.99506388	     22.66762394	      0.12252869	     -9.66533440	     -9.86996314	      1.97086569	     -5.59272478	      6.66089509	    -11.66893845	     -2.95038193	     11.41686349
      1.07100000	      3.74472323	      0.48498978	     -5.99240193	     -0.04554413	      0.88381276	      0.32760103	    -22.95192147	      2.04744132	     -1.13478399	    -15.50255082	     19.41530655	     14.14344130	     15.21120648	     22.66495736	      0.36280439	     -9.49961300	    -10.67020738	      1.48552124	     -6.11622714	      6.69250742	    -11.61577817	     -3.27961569	     11.35990833
      1.07516667	      3.83136791	      0.67865053	     -6.03852768	     -0.03921730	      0.88369526	      0.32737486	    -22.95762412	      1.73510619	     -1.23764795	    -16.43972882	     18.85754550	     14.10157331	     19.89883970	     22.61017579	      0.62921892	     -9.27014231	    -11.47431705	      1.00587444	     -6.74789896	      7.37553470	    -11.64371450	     -3.58013797	     11.28518095
      1.07933333	      3.87005653	      0.87184236	     -6.10702469	     -0.03283422	      0.88360098	      0.32721412	    -22.88797452	      1.42842784	     -1.24342820	    -17.42086768	     18.25723279	     14.02055598	     19.94569726	     22.62149472	      0.86051264	     -9.18916974	    -12.33501647	      0.60503294	     -7.12732087	      7.37016749	    -11.57942635	     -3.91166106	     11.21282672
